<svg width="790" height="820" viewBox="0 0 790 820" fill="none" xmlns="http://www.w3.org/2000/svg">
<path d="M0 0H676V820H0V0Z" fill="#835AFD"/>
<path opacity="0.5" d="M230.574 246.837C257.957 230.856 280.594 245.792 284.599 280.279C285.295 286.244 280.768 294.126 275.239 297.348L185.91 349.514C180.381 352.736 175.854 350.124 176.55 343.331C180.555 304.272 203.236 262.818 230.574 246.837Z" fill="url(#paint0_linear_45_2598)"/>
<path opacity="0.5" d="M200.058 202.073C200.058 225.892 213.814 237.126 230.792 227.198C247.77 217.27 261.526 189.968 261.526 166.149C261.526 142.331 247.77 131.096 230.792 141.024C213.814 150.952 200.058 178.255 200.058 202.073Z" fill="url(#paint1_linear_45_2598)"/>
<path opacity="0.07" d="M212.987 232.554C240.369 216.574 263.006 231.509 267.011 265.996C267.708 271.962 263.181 279.843 257.652 283.066L168.323 335.232C162.794 338.454 158.267 335.841 158.963 329.048C162.968 289.989 185.605 248.535 212.987 232.554Z" fill="url(#paint2_linear_45_2598)"/>
<path opacity="0.07" d="M182.471 187.791C182.471 211.61 196.227 222.844 213.205 212.916C230.183 202.988 243.939 175.686 243.939 151.867C243.939 128.048 230.183 116.814 213.205 126.742C196.227 136.67 182.471 163.972 182.471 187.791Z" fill="url(#paint3_linear_45_2598)"/>
<path opacity="0.2" d="M123.31 369.651C123.31 368.049 124.164 366.569 125.552 365.768L193.941 326.271C196.93 324.544 200.668 326.702 200.668 330.154V362.708L123.31 407.384V369.651Z" fill="url(#paint4_linear_45_2598)"/>
<path d="M184.952 344.985C184.952 348.295 186.911 349.862 189.349 348.469C191.787 347.076 193.746 343.244 193.746 339.934C193.746 336.625 191.787 335.057 189.349 336.451C186.911 337.844 184.952 341.676 184.952 344.985Z" fill="#E559F9"/>
<path opacity="0.15" d="M180.86 343.548L157.614 357.004V361.837L180.904 348.382L180.86 343.548Z" fill="#FEFEFE"/>
<path opacity="0.15" d="M180.86 353.259L131.32 381.867V386.788L180.86 358.179V353.259Z" fill="#FEFEFE"/>
<path opacity="0.2" d="M280.463 323.06C280.463 321.457 281.318 319.977 282.706 319.176L351.095 279.717C354.085 277.993 357.821 280.15 357.821 283.601V316.159L280.463 360.835V323.06Z" fill="url(#paint5_linear_45_2598)"/>
<path d="M342.105 298.393C342.105 301.703 344.064 303.27 346.502 301.877C348.94 300.483 350.899 296.651 350.899 293.342C350.899 290.033 348.94 288.465 346.502 289.859C344.064 291.252 342.105 295.084 342.105 298.393Z" fill="#835AFD"/>
<path opacity="0.15" d="M338.144 297.174L324.126 305.273V310.194L338.144 302.094V297.174Z" fill="#FEFEFE"/>
<path opacity="0.15" d="M338.013 306.884L288.473 335.493V340.413L338.013 311.805V306.884Z" fill="#FEFEFE"/>
<path opacity="0.3" d="M230.614 372.832C230.616 369.378 226.878 367.219 223.887 368.946L86.2835 448.416C84.8972 449.216 84.0429 450.695 84.042 452.296L83.9999 526.129L217.645 448.969L228.617 452.553C229.583 452.869 230.575 452.149 230.575 451.133L230.614 372.832Z" fill="url(#paint6_linear_45_2598)"/>
<path d="M200.842 407.863C200.842 414.177 204.542 417.095 209.156 414.438C213.771 411.782 217.471 404.51 217.471 398.24C217.471 391.926 213.771 389.009 209.156 391.665C204.586 394.321 200.842 401.593 200.842 407.863Z" fill="#E559F9"/>
<path opacity="0.15" d="M192.919 405.425L160.792 423.975V430.68L192.919 412.131V405.425Z" fill="#FEFEFE"/>
<path opacity="0.15" d="M192.919 418.88L96.9728 474.268V480.974L192.919 425.586V418.88Z" fill="#FEFEFE"/>
<path opacity="0.15" d="M192.919 432.335L117.912 475.662V482.367L192.919 439.041V432.335Z" fill="#FEFEFE"/>
<path opacity="0.3" d="M250.424 389.593C250.425 387.992 251.28 386.512 252.667 385.712L390.27 306.284C393.26 304.558 396.997 306.717 396.996 310.17L396.956 378.819L263.311 455.979L253.118 471.084C252.293 472.307 250.384 471.722 250.384 470.248L250.424 389.593Z" fill="url(#paint7_linear_45_2598)"/>
<path d="M280.202 395.41C280.202 401.723 276.458 408.952 271.887 411.608C267.273 414.264 263.572 411.303 263.572 404.989C263.572 398.675 267.316 391.447 271.887 388.791C276.458 386.178 280.202 389.139 280.202 395.41Z" fill="#835AFD"/>
<path opacity="0.15" d="M288.125 383.87L320.252 365.321V372.026L288.125 390.576V383.87Z" fill="#FEFEFE"/>
<path opacity="0.15" d="M288.081 397.282L384.027 341.894V348.6L288.125 403.988L288.081 397.282Z" fill="#FEFEFE"/>
<path opacity="0.15" d="M288.081 410.737L363.088 367.411V374.116L288.081 417.443V410.737Z" fill="#FEFEFE"/>
<path opacity="0.2" d="M335.967 434.599C333.355 436.08 331.266 439.738 331.266 442.786V456.067L322.472 461.118C319.86 462.598 317.771 466.256 317.771 469.26C317.771 472.265 319.86 473.484 322.472 472.004L331.266 466.909V480.19C331.266 483.195 333.355 484.414 335.967 482.933C338.579 481.453 340.669 477.795 340.669 474.791V461.51L349.462 456.459C352.074 454.978 354.164 451.32 354.164 448.316C354.164 445.311 352.074 444.092 349.462 445.572L340.669 450.624V437.343C340.712 434.295 338.579 433.075 335.967 434.599Z" fill="url(#paint8_linear_45_2598)"/>
<path opacity="0.2" d="M146.818 264.472L134.716 288.247C133.061 291.513 133.323 294.779 135.325 295.563C137.328 296.347 140.288 294.3 141.942 291.034L142.073 290.729V317.117C142.073 320.122 144.162 321.341 146.774 319.86C149.386 318.336 151.476 314.722 151.476 311.718V285.33L151.606 285.461C153.26 286.81 156.264 285.417 158.223 282.325C160.226 279.234 160.487 275.663 158.833 274.313L146.818 264.472Z" fill="url(#paint9_linear_45_2598)"/>
<path d="M104.412 542.728V547.66H97.716V568H91.56V547.66H84.864V542.728H104.412ZM116.646 568.288C114.678 568.288 112.902 567.868 111.318 567.028C109.758 566.188 108.522 564.988 107.61 563.428C106.722 561.868 106.278 560.044 106.278 557.956C106.278 555.892 106.734 554.08 107.646 552.52C108.558 550.936 109.806 549.724 111.39 548.884C112.974 548.044 114.75 547.624 116.718 547.624C118.686 547.624 120.462 548.044 122.046 548.884C123.63 549.724 124.878 550.936 125.79 552.52C126.702 554.08 127.158 555.892 127.158 557.956C127.158 560.02 126.69 561.844 125.754 563.428C124.842 564.988 123.582 566.188 121.974 567.028C120.39 567.868 118.614 568.288 116.646 568.288ZM116.646 562.96C117.822 562.96 118.818 562.528 119.634 561.664C120.474 560.8 120.894 559.564 120.894 557.956C120.894 556.348 120.486 555.112 119.67 554.248C118.878 553.384 117.894 552.952 116.718 552.952C115.518 552.952 114.522 553.384 113.73 554.248C112.938 555.088 112.542 556.324 112.542 557.956C112.542 559.564 112.926 560.8 113.694 561.664C114.486 562.528 115.47 562.96 116.646 562.96ZM129.199 557.92C129.199 555.856 129.583 554.044 130.351 552.484C131.143 550.924 132.211 549.724 133.555 548.884C134.899 548.044 136.399 547.624 138.055 547.624C139.375 547.624 140.575 547.9 141.655 548.452C142.759 549.004 143.623 549.748 144.247 550.684V541.36H150.403V568H144.247V565.12C143.671 566.08 142.843 566.848 141.763 567.424C140.707 568 139.471 568.288 138.055 568.288C136.399 568.288 134.899 567.868 133.555 567.028C132.211 566.164 131.143 564.952 130.351 563.392C129.583 561.808 129.199 559.984 129.199 557.92ZM144.247 557.956C144.247 556.42 143.815 555.208 142.951 554.32C142.111 553.432 141.079 552.988 139.855 552.988C138.631 552.988 137.587 553.432 136.723 554.32C135.883 555.184 135.463 556.384 135.463 557.92C135.463 559.456 135.883 560.68 136.723 561.592C137.587 562.48 138.631 562.924 139.855 562.924C141.079 562.924 142.111 562.48 142.951 561.592C143.815 560.704 144.247 559.492 144.247 557.956ZM153.633 557.92C153.633 555.856 154.017 554.044 154.785 552.484C155.577 550.924 156.645 549.724 157.989 548.884C159.333 548.044 160.833 547.624 162.489 547.624C163.905 547.624 165.141 547.912 166.197 548.488C167.277 549.064 168.105 549.82 168.681 550.756V547.912H174.837V568H168.681V565.156C168.081 566.092 167.241 566.848 166.161 567.424C165.105 568 163.869 568.288 162.453 568.288C160.821 568.288 159.333 567.868 157.989 567.028C156.645 566.164 155.577 564.952 154.785 563.392C154.017 561.808 153.633 559.984 153.633 557.92ZM168.681 557.956C168.681 556.42 168.249 555.208 167.385 554.32C166.545 553.432 165.513 552.988 164.289 552.988C163.065 552.988 162.021 553.432 161.157 554.32C160.317 555.184 159.897 556.384 159.897 557.92C159.897 559.456 160.317 560.68 161.157 561.592C162.021 562.48 163.065 562.924 164.289 562.924C165.513 562.924 166.545 562.48 167.385 561.592C168.249 560.704 168.681 559.492 168.681 557.956ZM193.076 550.756C193.676 549.82 194.504 549.064 195.56 548.488C196.616 547.912 197.852 547.624 199.268 547.624C200.924 547.624 202.424 548.044 203.768 548.884C205.112 549.724 206.168 550.924 206.936 552.484C207.728 554.044 208.124 555.856 208.124 557.92C208.124 559.984 207.728 561.808 206.936 563.392C206.168 564.952 205.112 566.164 203.768 567.028C202.424 567.868 200.924 568.288 199.268 568.288C197.876 568.288 196.64 568 195.56 567.424C194.504 566.848 193.676 566.104 193.076 565.192V577.576H186.92V547.912H193.076V550.756ZM201.86 557.92C201.86 556.384 201.428 555.184 200.564 554.32C199.724 553.432 198.68 552.988 197.432 552.988C196.208 552.988 195.164 553.432 194.3 554.32C193.46 555.208 193.04 556.42 193.04 557.956C193.04 559.492 193.46 560.704 194.3 561.592C195.164 562.48 196.208 562.924 197.432 562.924C198.656 562.924 199.7 562.48 200.564 561.592C201.428 560.68 201.86 559.456 201.86 557.92ZM230.289 557.632C230.289 558.208 230.253 558.808 230.181 559.432H216.249C216.345 560.68 216.741 561.64 217.437 562.312C218.157 562.96 219.033 563.284 220.065 563.284C221.601 563.284 222.669 562.636 223.269 561.34H229.821C229.485 562.66 228.873 563.848 227.985 564.904C227.121 565.96 226.029 566.788 224.709 567.388C223.389 567.988 221.913 568.288 220.281 568.288C218.313 568.288 216.561 567.868 215.025 567.028C213.489 566.188 212.289 564.988 211.425 563.428C210.561 561.868 210.129 560.044 210.129 557.956C210.129 555.868 210.549 554.044 211.389 552.484C212.253 550.924 213.453 549.724 214.989 548.884C216.525 548.044 218.289 547.624 220.281 547.624C222.225 547.624 223.953 548.032 225.465 548.848C226.977 549.664 228.153 550.828 228.993 552.34C229.857 553.852 230.289 555.616 230.289 557.632ZM223.989 556.012C223.989 554.956 223.629 554.116 222.909 553.492C222.189 552.868 221.289 552.556 220.209 552.556C219.177 552.556 218.301 552.856 217.581 553.456C216.885 554.056 216.453 554.908 216.285 556.012H223.989ZM239.693 551.26C240.413 550.156 241.313 549.292 242.393 548.668C243.473 548.02 244.673 547.696 245.993 547.696V554.212H244.301C242.765 554.212 241.613 554.548 240.845 555.22C240.077 555.868 239.693 557.02 239.693 558.676V568H233.537V547.912H239.693V551.26ZM256.567 547.624C257.983 547.624 259.219 547.912 260.275 548.488C261.355 549.064 262.183 549.82 262.759 550.756V547.912H268.915V567.964C268.915 569.812 268.543 571.48 267.799 572.968C267.079 574.48 265.963 575.68 264.451 576.568C262.963 577.456 261.103 577.9 258.871 577.9C255.895 577.9 253.483 577.192 251.635 575.776C249.787 574.384 248.731 572.488 248.467 570.088H254.551C254.743 570.856 255.199 571.456 255.919 571.888C256.639 572.344 257.527 572.572 258.583 572.572C259.855 572.572 260.863 572.2 261.607 571.456C262.375 570.736 262.759 569.572 262.759 567.964V565.12C262.159 566.056 261.331 566.824 260.275 567.424C259.219 568 257.983 568.288 256.567 568.288C254.911 568.288 253.411 567.868 252.067 567.028C250.723 566.164 249.655 564.952 248.863 563.392C248.095 561.808 247.711 559.984 247.711 557.92C247.711 555.856 248.095 554.044 248.863 552.484C249.655 550.924 250.723 549.724 252.067 548.884C253.411 548.044 254.911 547.624 256.567 547.624ZM262.759 557.956C262.759 556.42 262.327 555.208 261.463 554.32C260.623 553.432 259.591 552.988 258.367 552.988C257.143 552.988 256.099 553.432 255.235 554.32C254.395 555.184 253.975 556.384 253.975 557.92C253.975 559.456 254.395 560.68 255.235 561.592C256.099 562.48 257.143 562.924 258.367 562.924C259.591 562.924 260.623 562.48 261.463 561.592C262.327 560.704 262.759 559.492 262.759 557.956ZM293.205 547.912V568H287.049V565.264C286.425 566.152 285.573 566.872 284.493 567.424C283.437 567.952 282.261 568.216 280.965 568.216C279.429 568.216 278.073 567.88 276.897 567.208C275.721 566.512 274.809 565.516 274.161 564.22C273.513 562.924 273.189 561.4 273.189 559.648V547.912H279.309V558.82C279.309 560.164 279.657 561.208 280.353 561.952C281.049 562.696 281.985 563.068 283.161 563.068C284.361 563.068 285.309 562.696 286.005 561.952C286.701 561.208 287.049 560.164 287.049 558.82V547.912H293.205ZM309.867 547.696C312.219 547.696 314.091 548.464 315.483 550C316.899 551.512 317.607 553.6 317.607 556.264V568H311.487V557.092C311.487 555.748 311.139 554.704 310.443 553.96C309.747 553.216 308.811 552.844 307.635 552.844C306.459 552.844 305.523 553.216 304.827 553.96C304.131 554.704 303.783 555.748 303.783 557.092V568H297.627V547.912H303.783V550.576C304.407 549.688 305.247 548.992 306.303 548.488C307.359 547.96 308.547 547.696 309.867 547.696ZM333.08 562.78V568H329.948C327.716 568 325.976 567.46 324.728 566.38C323.48 565.276 322.856 563.488 322.856 561.016V553.024H320.408V547.912H322.856V543.016H329.012V547.912H333.044V553.024H329.012V561.088C329.012 561.688 329.156 562.12 329.444 562.384C329.732 562.648 330.212 562.78 330.884 562.78H333.08ZM335.285 557.92C335.285 555.856 335.669 554.044 336.437 552.484C337.229 550.924 338.297 549.724 339.641 548.884C340.985 548.044 342.485 547.624 344.141 547.624C345.557 547.624 346.793 547.912 347.849 548.488C348.929 549.064 349.757 549.82 350.333 550.756V547.912H356.489V568H350.333V565.156C349.733 566.092 348.893 566.848 347.813 567.424C346.757 568 345.521 568.288 344.105 568.288C342.473 568.288 340.985 567.868 339.641 567.028C338.297 566.164 337.229 564.952 336.437 563.392C335.669 561.808 335.285 559.984 335.285 557.92ZM350.333 557.956C350.333 556.42 349.901 555.208 349.037 554.32C348.197 553.432 347.165 552.988 345.941 552.988C344.717 552.988 343.673 553.432 342.809 554.32C341.969 555.184 341.549 556.384 341.549 557.92C341.549 559.456 341.969 560.68 342.809 561.592C343.673 562.48 344.717 562.924 345.941 562.924C347.165 562.924 348.197 562.48 349.037 561.592C349.901 560.704 350.333 559.492 350.333 557.956ZM379.768 562.78V568H376.636C374.404 568 372.664 567.46 371.416 566.38C370.168 565.276 369.544 563.488 369.544 561.016V553.024H367.096V547.912H369.544V543.016H375.7V547.912H379.732V553.024H375.7V561.088C375.7 561.688 375.844 562.12 376.132 562.384C376.42 562.648 376.9 562.78 377.572 562.78H379.768ZM402.133 557.632C402.133 558.208 402.097 558.808 402.025 559.432H388.093C388.189 560.68 388.585 561.64 389.281 562.312C390.001 562.96 390.877 563.284 391.909 563.284C393.445 563.284 394.513 562.636 395.113 561.34H401.665C401.329 562.66 400.717 563.848 399.829 564.904C398.965 565.96 397.873 566.788 396.553 567.388C395.233 567.988 393.757 568.288 392.125 568.288C390.157 568.288 388.405 567.868 386.869 567.028C385.333 566.188 384.133 564.988 383.269 563.428C382.405 561.868 381.973 560.044 381.973 557.956C381.973 555.868 382.393 554.044 383.233 552.484C384.097 550.924 385.297 549.724 386.833 548.884C388.369 548.044 390.133 547.624 392.125 547.624C394.069 547.624 395.797 548.032 397.309 548.848C398.821 549.664 399.997 550.828 400.837 552.34C401.701 553.852 402.133 555.616 402.133 557.632ZM395.833 556.012C395.833 554.956 395.473 554.116 394.753 553.492C394.033 552.868 393.133 552.556 392.053 552.556C391.021 552.556 390.145 552.856 389.425 553.456C388.729 554.056 388.297 554.908 388.129 556.012H395.833ZM431.012 547.696C433.508 547.696 435.488 548.452 436.952 549.964C438.44 551.476 439.184 553.576 439.184 556.264V568H433.064V557.092C433.064 555.796 432.716 554.8 432.02 554.104C431.348 553.384 430.412 553.024 429.212 553.024C428.012 553.024 427.064 553.384 426.368 554.104C425.696 554.8 425.36 555.796 425.36 557.092V568H419.24V557.092C419.24 555.796 418.892 554.8 418.196 554.104C417.524 553.384 416.588 553.024 415.388 553.024C414.188 553.024 413.24 553.384 412.544 554.104C411.872 554.8 411.536 555.796 411.536 557.092V568H405.38V547.912H411.536V550.432C412.16 549.592 412.976 548.932 413.984 548.452C414.992 547.948 416.132 547.696 417.404 547.696C418.916 547.696 420.26 548.02 421.436 548.668C422.636 549.316 423.572 550.24 424.244 551.44C424.94 550.336 425.888 549.436 427.088 548.74C428.288 548.044 429.596 547.696 431.012 547.696ZM106.068 589.912V610H99.912V607.264C99.288 608.152 98.436 608.872 97.356 609.424C96.3 609.952 95.124 610.216 93.828 610.216C92.292 610.216 90.936 609.88 89.76 609.208C88.584 608.512 87.672 607.516 87.024 606.22C86.376 604.924 86.052 603.4 86.052 601.648V589.912H92.172V600.82C92.172 602.164 92.52 603.208 93.216 603.952C93.912 604.696 94.848 605.068 96.024 605.068C97.224 605.068 98.172 604.696 98.868 603.952C99.564 603.208 99.912 602.164 99.912 600.82V589.912H106.068ZM136.122 589.696C138.618 589.696 140.598 590.452 142.062 591.964C143.55 593.476 144.294 595.576 144.294 598.264V610H138.174V599.092C138.174 597.796 137.826 596.8 137.13 596.104C136.458 595.384 135.522 595.024 134.322 595.024C133.122 595.024 132.174 595.384 131.478 596.104C130.806 596.8 130.47 597.796 130.47 599.092V610H124.35V599.092C124.35 597.796 124.002 596.8 123.306 596.104C122.634 595.384 121.698 595.024 120.498 595.024C119.298 595.024 118.35 595.384 117.654 596.104C116.982 596.8 116.646 597.796 116.646 599.092V610H110.49V589.912H116.646V592.432C117.27 591.592 118.086 590.932 119.094 590.452C120.102 589.948 121.242 589.696 122.514 589.696C124.026 589.696 125.37 590.02 126.546 590.668C127.746 591.316 128.682 592.24 129.354 593.44C130.05 592.336 130.998 591.436 132.198 590.74C133.398 590.044 134.706 589.696 136.122 589.696ZM147.375 599.92C147.375 597.856 147.759 596.044 148.527 594.484C149.319 592.924 150.387 591.724 151.731 590.884C153.075 590.044 154.575 589.624 156.231 589.624C157.647 589.624 158.883 589.912 159.939 590.488C161.019 591.064 161.847 591.82 162.423 592.756V589.912H168.579V610H162.423V607.156C161.823 608.092 160.983 608.848 159.903 609.424C158.847 610 157.611 610.288 156.195 610.288C154.563 610.288 153.075 609.868 151.731 609.028C150.387 608.164 149.319 606.952 148.527 605.392C147.759 603.808 147.375 601.984 147.375 599.92ZM162.423 599.956C162.423 598.42 161.991 597.208 161.127 596.32C160.287 595.432 159.255 594.988 158.031 594.988C156.807 594.988 155.763 595.432 154.899 596.32C154.059 597.184 153.639 598.384 153.639 599.92C153.639 601.456 154.059 602.68 154.899 603.592C155.763 604.48 156.807 604.924 158.031 604.924C159.255 604.924 160.287 604.48 161.127 603.592C161.991 602.704 162.423 601.492 162.423 599.956ZM186.818 593.26C187.538 592.156 188.438 591.292 189.518 590.668C190.598 590.02 191.798 589.696 193.118 589.696V596.212H191.426C189.89 596.212 188.738 596.548 187.97 597.22C187.202 597.868 186.818 599.02 186.818 600.676V610H180.662V589.912H186.818V593.26ZM214.996 599.632C214.996 600.208 214.96 600.808 214.888 601.432H200.956C201.052 602.68 201.448 603.64 202.144 604.312C202.864 604.96 203.74 605.284 204.772 605.284C206.308 605.284 207.376 604.636 207.976 603.34H214.528C214.192 604.66 213.58 605.848 212.692 606.904C211.828 607.96 210.736 608.788 209.416 609.388C208.096 609.988 206.62 610.288 204.988 610.288C203.02 610.288 201.268 609.868 199.732 609.028C198.196 608.188 196.996 606.988 196.132 605.428C195.268 603.868 194.836 602.044 194.836 599.956C194.836 597.868 195.256 596.044 196.096 594.484C196.96 592.924 198.16 591.724 199.696 590.884C201.232 590.044 202.996 589.624 204.988 589.624C206.932 589.624 208.66 590.032 210.172 590.848C211.684 591.664 212.86 592.828 213.7 594.34C214.564 595.852 214.996 597.616 214.996 599.632ZM208.696 598.012C208.696 596.956 208.336 596.116 207.616 595.492C206.896 594.868 205.996 594.556 204.916 594.556C203.884 594.556 203.008 594.856 202.288 595.456C201.592 596.056 201.16 596.908 200.992 598.012H208.696ZM226.416 610.288C224.664 610.288 223.104 609.988 221.736 609.388C220.368 608.788 219.288 607.972 218.496 606.94C217.704 605.884 217.26 604.708 217.164 603.412H223.248C223.32 604.108 223.644 604.672 224.22 605.104C224.796 605.536 225.504 605.752 226.344 605.752C227.112 605.752 227.7 605.608 228.108 605.32C228.54 605.008 228.756 604.612 228.756 604.132C228.756 603.556 228.456 603.136 227.856 602.872C227.256 602.584 226.284 602.272 224.94 601.936C223.5 601.6 222.3 601.252 221.34 600.892C220.38 600.508 219.552 599.92 218.856 599.128C218.16 598.312 217.812 597.22 217.812 595.852C217.812 594.7 218.124 593.656 218.748 592.72C219.396 591.76 220.332 591.004 221.556 590.452C222.804 589.9 224.28 589.624 225.984 589.624C228.504 589.624 230.484 590.248 231.924 591.496C233.388 592.744 234.228 594.4 234.444 596.464H228.756C228.66 595.768 228.348 595.216 227.82 594.808C227.316 594.4 226.644 594.196 225.804 594.196C225.084 594.196 224.532 594.34 224.148 594.628C223.764 594.892 223.572 595.264 223.572 595.744C223.572 596.32 223.872 596.752 224.472 597.04C225.096 597.328 226.056 597.616 227.352 597.904C228.84 598.288 230.052 598.672 230.988 599.056C231.924 599.416 232.74 600.016 233.436 600.856C234.156 601.672 234.528 602.776 234.552 604.168C234.552 605.344 234.216 606.4 233.544 607.336C232.896 608.248 231.948 608.968 230.7 609.496C229.476 610.024 228.048 610.288 226.416 610.288ZM244.474 592.756C245.074 591.82 245.902 591.064 246.958 590.488C248.014 589.912 249.25 589.624 250.666 589.624C252.322 589.624 253.822 590.044 255.166 590.884C256.51 591.724 257.566 592.924 258.334 594.484C259.126 596.044 259.522 597.856 259.522 599.92C259.522 601.984 259.126 603.808 258.334 605.392C257.566 606.952 256.51 608.164 255.166 609.028C253.822 609.868 252.322 610.288 250.666 610.288C249.274 610.288 248.038 610 246.958 609.424C245.902 608.848 245.074 608.104 244.474 607.192V619.576H238.318V589.912H244.474V592.756ZM253.258 599.92C253.258 598.384 252.826 597.184 251.962 596.32C251.122 595.432 250.078 594.988 248.83 594.988C247.606 594.988 246.562 595.432 245.698 596.32C244.858 597.208 244.438 598.42 244.438 599.956C244.438 601.492 244.858 602.704 245.698 603.592C246.562 604.48 247.606 604.924 248.83 604.924C250.054 604.924 251.098 604.48 251.962 603.592C252.826 602.68 253.258 601.456 253.258 599.92ZM271.896 610.288C269.928 610.288 268.152 609.868 266.568 609.028C265.008 608.188 263.772 606.988 262.86 605.428C261.972 603.868 261.528 602.044 261.528 599.956C261.528 597.892 261.984 596.08 262.896 594.52C263.808 592.936 265.056 591.724 266.64 590.884C268.224 590.044 270 589.624 271.968 589.624C273.936 589.624 275.712 590.044 277.296 590.884C278.88 591.724 280.128 592.936 281.04 594.52C281.952 596.08 282.408 597.892 282.408 599.956C282.408 602.02 281.94 603.844 281.004 605.428C280.092 606.988 278.832 608.188 277.224 609.028C275.64 609.868 273.864 610.288 271.896 610.288ZM271.896 604.96C273.072 604.96 274.068 604.528 274.884 603.664C275.724 602.8 276.144 601.564 276.144 599.956C276.144 598.348 275.736 597.112 274.92 596.248C274.128 595.384 273.144 594.952 271.968 594.952C270.768 594.952 269.772 595.384 268.98 596.248C268.188 597.088 267.792 598.324 267.792 599.956C267.792 601.564 268.176 602.8 268.944 603.664C269.736 604.528 270.72 604.96 271.896 604.96ZM293.845 610.288C292.093 610.288 290.533 609.988 289.165 609.388C287.797 608.788 286.717 607.972 285.925 606.94C285.133 605.884 284.689 604.708 284.593 603.412H290.677C290.749 604.108 291.073 604.672 291.649 605.104C292.225 605.536 292.933 605.752 293.773 605.752C294.541 605.752 295.129 605.608 295.537 605.32C295.969 605.008 296.185 604.612 296.185 604.132C296.185 603.556 295.885 603.136 295.285 602.872C294.685 602.584 293.713 602.272 292.369 601.936C290.929 601.6 289.729 601.252 288.769 600.892C287.809 600.508 286.981 599.92 286.285 599.128C285.589 598.312 285.241 597.22 285.241 595.852C285.241 594.7 285.553 593.656 286.177 592.72C286.825 591.76 287.761 591.004 288.985 590.452C290.233 589.9 291.709 589.624 293.413 589.624C295.933 589.624 297.913 590.248 299.353 591.496C300.817 592.744 301.657 594.4 301.873 596.464H296.185C296.089 595.768 295.777 595.216 295.249 594.808C294.745 594.4 294.073 594.196 293.233 594.196C292.513 594.196 291.961 594.34 291.577 594.628C291.193 594.892 291.001 595.264 291.001 595.744C291.001 596.32 291.301 596.752 291.901 597.04C292.525 597.328 293.485 597.616 294.781 597.904C296.269 598.288 297.481 598.672 298.417 599.056C299.353 599.416 300.169 600.016 300.865 600.856C301.585 601.672 301.957 602.776 301.981 604.168C301.981 605.344 301.645 606.4 300.973 607.336C300.325 608.248 299.377 608.968 298.129 609.496C296.905 610.024 295.477 610.288 293.845 610.288ZM316.944 604.78V610H313.812C311.58 610 309.84 609.46 308.592 608.38C307.344 607.276 306.72 605.488 306.72 603.016V595.024H304.272V589.912H306.72V585.016H312.876V589.912H316.908V595.024H312.876V603.088C312.876 603.688 313.02 604.12 313.308 604.384C313.596 604.648 314.076 604.78 314.748 604.78H316.944ZM319.149 599.92C319.149 597.856 319.533 596.044 320.301 594.484C321.093 592.924 322.161 591.724 323.505 590.884C324.849 590.044 326.349 589.624 328.005 589.624C329.421 589.624 330.657 589.912 331.713 590.488C332.793 591.064 333.621 591.82 334.197 592.756V589.912H340.353V610H334.197V607.156C333.597 608.092 332.757 608.848 331.677 609.424C330.621 610 329.385 610.288 327.969 610.288C326.337 610.288 324.849 609.868 323.505 609.028C322.161 608.164 321.093 606.952 320.301 605.392C319.533 603.808 319.149 601.984 319.149 599.92ZM334.197 599.956C334.197 598.42 333.765 597.208 332.901 596.32C332.061 595.432 331.029 594.988 329.805 594.988C328.581 594.988 327.537 595.432 326.673 596.32C325.833 597.184 325.413 598.384 325.413 599.92C325.413 601.456 325.833 602.68 326.673 603.592C327.537 604.48 328.581 604.924 329.805 604.924C331.029 604.924 332.061 604.48 332.901 603.592C333.765 602.704 334.197 601.492 334.197 599.956ZM347.686 610.288C346.606 610.288 345.718 609.976 345.022 609.352C344.35 608.704 344.014 607.912 344.014 606.976C344.014 606.016 344.35 605.212 345.022 604.564C345.718 603.916 346.606 603.592 347.686 603.592C348.742 603.592 349.606 603.916 350.278 604.564C350.974 605.212 351.322 606.016 351.322 606.976C351.322 607.912 350.974 608.704 350.278 609.352C349.606 609.976 348.742 610.288 347.686 610.288Z" fill="white"/>
<path opacity="0.7" d="M95.4023 653.547H88.2539L86.6484 658H84.3281L90.8438 640.938H92.8125L99.3398 658H97.0312L95.4023 653.547ZM88.9336 651.695H94.7344L91.8281 643.715L88.9336 651.695ZM112.008 651.801C112.008 653.73 111.566 655.285 110.684 656.465C109.801 657.645 108.605 658.234 107.098 658.234C105.559 658.234 104.348 657.746 103.465 656.77V662.875H101.297V645.32H103.277L103.383 646.727C104.266 645.633 105.492 645.086 107.062 645.086C108.586 645.086 109.789 645.66 110.672 646.809C111.562 647.957 112.008 649.555 112.008 651.602V651.801ZM109.84 651.555C109.84 650.125 109.535 648.996 108.926 648.168C108.316 647.34 107.48 646.926 106.418 646.926C105.105 646.926 104.121 647.508 103.465 648.672V654.73C104.113 655.887 105.105 656.465 106.441 656.465C107.48 656.465 108.305 656.055 108.914 655.234C109.531 654.406 109.84 653.18 109.84 651.555ZM120.902 647.266C120.574 647.211 120.219 647.184 119.836 647.184C118.414 647.184 117.449 647.789 116.941 649V658H114.773V645.32H116.883L116.918 646.785C117.629 645.652 118.637 645.086 119.941 645.086C120.363 645.086 120.684 645.141 120.902 645.25V647.266ZM127.934 658.234C126.215 658.234 124.816 657.672 123.738 656.547C122.66 655.414 122.121 653.902 122.121 652.012V651.613C122.121 650.355 122.359 649.234 122.836 648.25C123.32 647.258 123.992 646.484 124.852 645.93C125.719 645.367 126.656 645.086 127.664 645.086C129.312 645.086 130.594 645.629 131.508 646.715C132.422 647.801 132.879 649.355 132.879 651.379V652.281H124.289C124.32 653.531 124.684 654.543 125.379 655.316C126.082 656.082 126.973 656.465 128.051 656.465C128.816 656.465 129.465 656.309 129.996 655.996C130.527 655.684 130.992 655.27 131.391 654.754L132.715 655.785C131.652 657.418 130.059 658.234 127.934 658.234ZM127.664 646.867C126.789 646.867 126.055 647.188 125.461 647.828C124.867 648.461 124.5 649.352 124.359 650.5H130.711V650.336C130.648 649.234 130.352 648.383 129.82 647.781C129.289 647.172 128.57 646.867 127.664 646.867ZM137.449 645.32L137.52 646.914C138.488 645.695 139.754 645.086 141.316 645.086C143.996 645.086 145.348 646.598 145.371 649.621V658H143.203V649.609C143.195 648.695 142.984 648.02 142.57 647.582C142.164 647.145 141.527 646.926 140.66 646.926C139.957 646.926 139.34 647.113 138.809 647.488C138.277 647.863 137.863 648.355 137.566 648.965V658H135.398V645.32H137.449ZM148.113 651.555C148.113 649.609 148.574 648.047 149.496 646.867C150.418 645.68 151.625 645.086 153.117 645.086C154.602 645.086 155.777 645.594 156.645 646.609V640H158.812V658H156.82L156.715 656.641C155.848 657.703 154.641 658.234 153.094 658.234C151.625 658.234 150.426 657.633 149.496 656.43C148.574 655.227 148.113 653.656 148.113 651.719V651.555ZM150.281 651.801C150.281 653.238 150.578 654.363 151.172 655.176C151.766 655.988 152.586 656.395 153.633 656.395C155.008 656.395 156.012 655.777 156.645 654.543V648.719C155.996 647.523 155 646.926 153.656 646.926C152.594 646.926 151.766 647.336 151.172 648.156C150.578 648.977 150.281 650.191 150.281 651.801ZM170.016 658C169.891 657.75 169.789 657.305 169.711 656.664C168.703 657.711 167.5 658.234 166.102 658.234C164.852 658.234 163.824 657.883 163.02 657.18C162.223 656.469 161.824 655.57 161.824 654.484C161.824 653.164 162.324 652.141 163.324 651.414C164.332 650.68 165.746 650.312 167.566 650.312H169.676V649.316C169.676 648.559 169.449 647.957 168.996 647.512C168.543 647.059 167.875 646.832 166.992 646.832C166.219 646.832 165.57 647.027 165.047 647.418C164.523 647.809 164.262 648.281 164.262 648.836H162.082C162.082 648.203 162.305 647.594 162.75 647.008C163.203 646.414 163.812 645.945 164.578 645.602C165.352 645.258 166.199 645.086 167.121 645.086C168.582 645.086 169.727 645.453 170.555 646.188C171.383 646.914 171.812 647.918 171.844 649.199V655.035C171.844 656.199 171.992 657.125 172.289 657.812V658H170.016ZM166.418 656.348C167.098 656.348 167.742 656.172 168.352 655.82C168.961 655.469 169.402 655.012 169.676 654.449V651.848H167.977C165.32 651.848 163.992 652.625 163.992 654.18C163.992 654.859 164.219 655.391 164.672 655.773C165.125 656.156 165.707 656.348 166.418 656.348ZM186.457 658.234C184.738 658.234 183.34 657.672 182.262 656.547C181.184 655.414 180.645 653.902 180.645 652.012V651.613C180.645 650.355 180.883 649.234 181.359 648.25C181.844 647.258 182.516 646.484 183.375 645.93C184.242 645.367 185.18 645.086 186.188 645.086C187.836 645.086 189.117 645.629 190.031 646.715C190.945 647.801 191.402 649.355 191.402 651.379V652.281H182.812C182.844 653.531 183.207 654.543 183.902 655.316C184.605 656.082 185.496 656.465 186.574 656.465C187.34 656.465 187.988 656.309 188.52 655.996C189.051 655.684 189.516 655.27 189.914 654.754L191.238 655.785C190.176 657.418 188.582 658.234 186.457 658.234ZM186.188 646.867C185.312 646.867 184.578 647.188 183.984 647.828C183.391 648.461 183.023 649.352 182.883 650.5H189.234V650.336C189.172 649.234 188.875 648.383 188.344 647.781C187.812 647.172 187.094 646.867 186.188 646.867ZM204.961 656.465C205.734 656.465 206.41 656.23 206.988 655.762C207.566 655.293 207.887 654.707 207.949 654.004H210C209.961 654.73 209.711 655.422 209.25 656.078C208.789 656.734 208.172 657.258 207.398 657.648C206.633 658.039 205.82 658.234 204.961 658.234C203.234 658.234 201.859 657.66 200.836 656.512C199.82 655.355 199.312 653.777 199.312 651.777V651.414C199.312 650.18 199.539 649.082 199.992 648.121C200.445 647.16 201.094 646.414 201.938 645.883C202.789 645.352 203.793 645.086 204.949 645.086C206.371 645.086 207.551 645.512 208.488 646.363C209.434 647.215 209.938 648.32 210 649.68H207.949C207.887 648.859 207.574 648.188 207.012 647.664C206.457 647.133 205.77 646.867 204.949 646.867C203.848 646.867 202.992 647.266 202.383 648.062C201.781 648.852 201.48 649.996 201.48 651.496V651.906C201.48 653.367 201.781 654.492 202.383 655.281C202.984 656.07 203.844 656.465 204.961 656.465ZM211.863 651.543C211.863 650.301 212.105 649.184 212.59 648.191C213.082 647.199 213.762 646.434 214.629 645.895C215.504 645.355 216.5 645.086 217.617 645.086C219.344 645.086 220.738 645.684 221.801 646.879C222.871 648.074 223.406 649.664 223.406 651.648V651.801C223.406 653.035 223.168 654.145 222.691 655.129C222.223 656.105 221.547 656.867 220.664 657.414C219.789 657.961 218.781 658.234 217.641 658.234C215.922 658.234 214.527 657.637 213.457 656.441C212.395 655.246 211.863 653.664 211.863 651.695V651.543ZM214.043 651.801C214.043 653.207 214.367 654.336 215.016 655.188C215.672 656.039 216.547 656.465 217.641 656.465C218.742 656.465 219.617 656.035 220.266 655.176C220.914 654.309 221.238 653.098 221.238 651.543C221.238 650.152 220.906 649.027 220.242 648.168C219.586 647.301 218.711 646.867 217.617 646.867C216.547 646.867 215.684 647.293 215.027 648.145C214.371 648.996 214.043 650.215 214.043 651.801ZM228.164 645.32L228.223 646.727C229.152 645.633 230.406 645.086 231.984 645.086C233.758 645.086 234.965 645.766 235.605 647.125C236.027 646.516 236.574 646.023 237.246 645.648C237.926 645.273 238.727 645.086 239.648 645.086C242.43 645.086 243.844 646.559 243.891 649.504V658H241.723V649.633C241.723 648.727 241.516 648.051 241.102 647.605C240.688 647.152 239.992 646.926 239.016 646.926C238.211 646.926 237.543 647.168 237.012 647.652C236.48 648.129 236.172 648.773 236.086 649.586V658H233.906V649.691C233.906 647.848 233.004 646.926 231.199 646.926C229.777 646.926 228.805 647.531 228.281 648.742V658H226.113V645.32H228.164ZM257.883 651.801C257.883 653.73 257.441 655.285 256.559 656.465C255.676 657.645 254.48 658.234 252.973 658.234C251.434 658.234 250.223 657.746 249.34 656.77V662.875H247.172V645.32H249.152L249.258 646.727C250.141 645.633 251.367 645.086 252.938 645.086C254.461 645.086 255.664 645.66 256.547 646.809C257.438 647.957 257.883 649.555 257.883 651.602V651.801ZM255.715 651.555C255.715 650.125 255.41 648.996 254.801 648.168C254.191 647.34 253.355 646.926 252.293 646.926C250.98 646.926 249.996 647.508 249.34 648.672V654.73C249.988 655.887 250.98 656.465 252.316 656.465C253.355 656.465 254.18 656.055 254.789 655.234C255.406 654.406 255.715 653.18 255.715 651.555ZM268.477 658C268.352 657.75 268.25 657.305 268.172 656.664C267.164 657.711 265.961 658.234 264.562 658.234C263.312 658.234 262.285 657.883 261.48 657.18C260.684 656.469 260.285 655.57 260.285 654.484C260.285 653.164 260.785 652.141 261.785 651.414C262.793 650.68 264.207 650.312 266.027 650.312H268.137V649.316C268.137 648.559 267.91 647.957 267.457 647.512C267.004 647.059 266.336 646.832 265.453 646.832C264.68 646.832 264.031 647.027 263.508 647.418C262.984 647.809 262.723 648.281 262.723 648.836H260.543C260.543 648.203 260.766 647.594 261.211 647.008C261.664 646.414 262.273 645.945 263.039 645.602C263.812 645.258 264.66 645.086 265.582 645.086C267.043 645.086 268.188 645.453 269.016 646.188C269.844 646.914 270.273 647.918 270.305 649.199V655.035C270.305 656.199 270.453 657.125 270.75 657.812V658H268.477ZM264.879 656.348C265.559 656.348 266.203 656.172 266.812 655.82C267.422 655.469 267.863 655.012 268.137 654.449V651.848H266.438C263.781 651.848 262.453 652.625 262.453 654.18C262.453 654.859 262.68 655.391 263.133 655.773C263.586 656.156 264.168 656.348 264.879 656.348ZM279.832 647.266C279.504 647.211 279.148 647.184 278.766 647.184C277.344 647.184 276.379 647.789 275.871 649V658H273.703V645.32H275.812L275.848 646.785C276.559 645.652 277.566 645.086 278.871 645.086C279.293 645.086 279.613 645.141 279.832 645.25V647.266ZM285.363 642.25V645.32H287.73V646.996H285.363V654.859C285.363 655.367 285.469 655.75 285.68 656.008C285.891 656.258 286.25 656.383 286.758 656.383C287.008 656.383 287.352 656.336 287.789 656.242V658C287.219 658.156 286.664 658.234 286.125 658.234C285.156 658.234 284.426 657.941 283.934 657.355C283.441 656.77 283.195 655.938 283.195 654.859V646.996H280.887V645.32H283.195V642.25H285.363ZM292.629 658H290.461V645.32H292.629V658ZM290.285 641.957C290.285 641.605 290.391 641.309 290.602 641.066C290.82 640.824 291.141 640.703 291.562 640.703C291.984 640.703 292.305 640.824 292.523 641.066C292.742 641.309 292.852 641.605 292.852 641.957C292.852 642.309 292.742 642.602 292.523 642.836C292.305 643.07 291.984 643.188 291.562 643.188C291.141 643.188 290.82 643.07 290.602 642.836C290.391 642.602 290.285 642.309 290.285 641.957ZM298.465 658H296.297V640H298.465V658ZM304.113 646.855C305.074 645.676 306.324 645.086 307.863 645.086C310.543 645.086 311.895 646.598 311.918 649.621V658H309.75V649.609C309.742 648.695 309.531 648.02 309.117 647.582C308.711 647.145 308.074 646.926 307.207 646.926C306.504 646.926 305.887 647.113 305.355 647.488C304.824 647.863 304.41 648.355 304.113 648.965V658H301.945V640H304.113V646.855ZM320.426 658.234C318.707 658.234 317.309 657.672 316.23 656.547C315.152 655.414 314.613 653.902 314.613 652.012V651.613C314.613 650.355 314.852 649.234 315.328 648.25C315.812 647.258 316.484 646.484 317.344 645.93C318.211 645.367 319.148 645.086 320.156 645.086C321.805 645.086 323.086 645.629 324 646.715C324.914 647.801 325.371 649.355 325.371 651.379V652.281H316.781C316.812 653.531 317.176 654.543 317.871 655.316C318.574 656.082 319.465 656.465 320.543 656.465C321.309 656.465 321.957 656.309 322.488 655.996C323.02 655.684 323.484 655.27 323.883 654.754L325.207 655.785C324.145 657.418 322.551 658.234 320.426 658.234ZM320.156 646.867C319.281 646.867 318.547 647.188 317.953 647.828C317.359 648.461 316.992 649.352 316.852 650.5H323.203V650.336C323.141 649.234 322.844 648.383 322.312 647.781C321.781 647.172 321.062 646.867 320.156 646.867ZM338.93 656.465C339.703 656.465 340.379 656.23 340.957 655.762C341.535 655.293 341.855 654.707 341.918 654.004H343.969C343.93 654.73 343.68 655.422 343.219 656.078C342.758 656.734 342.141 657.258 341.367 657.648C340.602 658.039 339.789 658.234 338.93 658.234C337.203 658.234 335.828 657.66 334.805 656.512C333.789 655.355 333.281 653.777 333.281 651.777V651.414C333.281 650.18 333.508 649.082 333.961 648.121C334.414 647.16 335.062 646.414 335.906 645.883C336.758 645.352 337.762 645.086 338.918 645.086C340.34 645.086 341.52 645.512 342.457 646.363C343.402 647.215 343.906 648.32 343.969 649.68H341.918C341.855 648.859 341.543 648.188 340.98 647.664C340.426 647.133 339.738 646.867 338.918 646.867C337.816 646.867 336.961 647.266 336.352 648.062C335.75 648.852 335.449 649.996 335.449 651.496V651.906C335.449 653.367 335.75 654.492 336.352 655.281C336.953 656.07 337.812 656.465 338.93 656.465ZM345.832 651.543C345.832 650.301 346.074 649.184 346.559 648.191C347.051 647.199 347.73 646.434 348.598 645.895C349.473 645.355 350.469 645.086 351.586 645.086C353.312 645.086 354.707 645.684 355.77 646.879C356.84 648.074 357.375 649.664 357.375 651.648V651.801C357.375 653.035 357.137 654.145 356.66 655.129C356.191 656.105 355.516 656.867 354.633 657.414C353.758 657.961 352.75 658.234 351.609 658.234C349.891 658.234 348.496 657.637 347.426 656.441C346.363 655.246 345.832 653.664 345.832 651.695V651.543ZM348.012 651.801C348.012 653.207 348.336 654.336 348.984 655.188C349.641 656.039 350.516 656.465 351.609 656.465C352.711 656.465 353.586 656.035 354.234 655.176C354.883 654.309 355.207 653.098 355.207 651.543C355.207 650.152 354.875 649.027 354.211 648.168C353.555 647.301 352.68 646.867 351.586 646.867C350.516 646.867 349.652 647.293 348.996 648.145C348.34 648.996 348.012 650.215 348.012 651.801ZM362.145 645.32L362.215 646.914C363.184 645.695 364.449 645.086 366.012 645.086C368.691 645.086 370.043 646.598 370.066 649.621V658H367.898V649.609C367.891 648.695 367.68 648.02 367.266 647.582C366.859 647.145 366.223 646.926 365.355 646.926C364.652 646.926 364.035 647.113 363.504 647.488C362.973 647.863 362.559 648.355 362.262 648.965V658H360.094V645.32H362.145ZM375.504 646.855C376.465 645.676 377.715 645.086 379.254 645.086C381.934 645.086 383.285 646.598 383.309 649.621V658H381.141V649.609C381.133 648.695 380.922 648.02 380.508 647.582C380.102 647.145 379.465 646.926 378.598 646.926C377.895 646.926 377.277 647.113 376.746 647.488C376.215 647.863 375.801 648.355 375.504 648.965V658H373.336V640H375.504V646.855ZM391.816 658.234C390.098 658.234 388.699 657.672 387.621 656.547C386.543 655.414 386.004 653.902 386.004 652.012V651.613C386.004 650.355 386.242 649.234 386.719 648.25C387.203 647.258 387.875 646.484 388.734 645.93C389.602 645.367 390.539 645.086 391.547 645.086C393.195 645.086 394.477 645.629 395.391 646.715C396.305 647.801 396.762 649.355 396.762 651.379V652.281H388.172C388.203 653.531 388.566 654.543 389.262 655.316C389.965 656.082 390.855 656.465 391.934 656.465C392.699 656.465 393.348 656.309 393.879 655.996C394.41 655.684 394.875 655.27 395.273 654.754L396.598 655.785C395.535 657.418 393.941 658.234 391.816 658.234ZM391.547 646.867C390.672 646.867 389.938 647.188 389.344 647.828C388.75 648.461 388.383 649.352 388.242 650.5H394.594V650.336C394.531 649.234 394.234 648.383 393.703 647.781C393.172 647.172 392.453 646.867 391.547 646.867ZM404.367 656.465C405.141 656.465 405.816 656.23 406.395 655.762C406.973 655.293 407.293 654.707 407.355 654.004H409.406C409.367 654.73 409.117 655.422 408.656 656.078C408.195 656.734 407.578 657.258 406.805 657.648C406.039 658.039 405.227 658.234 404.367 658.234C402.641 658.234 401.266 657.66 400.242 656.512C399.227 655.355 398.719 653.777 398.719 651.777V651.414C398.719 650.18 398.945 649.082 399.398 648.121C399.852 647.16 400.5 646.414 401.344 645.883C402.195 645.352 403.199 645.086 404.355 645.086C405.777 645.086 406.957 645.512 407.895 646.363C408.84 647.215 409.344 648.32 409.406 649.68H407.355C407.293 648.859 406.98 648.188 406.418 647.664C405.863 647.133 405.176 646.867 404.355 646.867C403.254 646.867 402.398 647.266 401.789 648.062C401.188 648.852 400.887 649.996 400.887 651.496V651.906C400.887 653.367 401.188 654.492 401.789 655.281C402.391 656.07 403.25 656.465 404.367 656.465ZM414.199 658H412.031V645.32H414.199V658ZM411.855 641.957C411.855 641.605 411.961 641.309 412.172 641.066C412.391 640.824 412.711 640.703 413.133 640.703C413.555 640.703 413.875 640.824 414.094 641.066C414.312 641.309 414.422 641.605 414.422 641.957C414.422 642.309 414.312 642.602 414.094 642.836C413.875 643.07 413.555 643.188 413.133 643.188C412.711 643.188 412.391 643.07 412.172 642.836C411.961 642.602 411.855 642.309 411.855 641.957ZM419.719 645.32L419.777 646.727C420.707 645.633 421.961 645.086 423.539 645.086C425.312 645.086 426.52 645.766 427.16 647.125C427.582 646.516 428.129 646.023 428.801 645.648C429.48 645.273 430.281 645.086 431.203 645.086C433.984 645.086 435.398 646.559 435.445 649.504V658H433.277V649.633C433.277 648.727 433.07 648.051 432.656 647.605C432.242 647.152 431.547 646.926 430.57 646.926C429.766 646.926 429.098 647.168 428.566 647.652C428.035 648.129 427.727 648.773 427.641 649.586V658H425.461V649.691C425.461 647.848 424.559 646.926 422.754 646.926C421.332 646.926 420.359 647.531 419.836 648.742V658H417.668V645.32H419.719ZM443.988 658.234C442.27 658.234 440.871 657.672 439.793 656.547C438.715 655.414 438.176 653.902 438.176 652.012V651.613C438.176 650.355 438.414 649.234 438.891 648.25C439.375 647.258 440.047 646.484 440.906 645.93C441.773 645.367 442.711 645.086 443.719 645.086C445.367 645.086 446.648 645.629 447.562 646.715C448.477 647.801 448.934 649.355 448.934 651.379V652.281H440.344C440.375 653.531 440.738 654.543 441.434 655.316C442.137 656.082 443.027 656.465 444.105 656.465C444.871 656.465 445.52 656.309 446.051 655.996C446.582 655.684 447.047 655.27 447.445 654.754L448.77 655.785C447.707 657.418 446.113 658.234 443.988 658.234ZM443.719 646.867C442.844 646.867 442.109 647.188 441.516 647.828C440.922 648.461 440.555 649.352 440.414 650.5H446.766V650.336C446.703 649.234 446.406 648.383 445.875 647.781C445.344 647.172 444.625 646.867 443.719 646.867ZM453.504 645.32L453.574 646.914C454.543 645.695 455.809 645.086 457.371 645.086C460.051 645.086 461.402 646.598 461.426 649.621V658H459.258V649.609C459.25 648.695 459.039 648.02 458.625 647.582C458.219 647.145 457.582 646.926 456.715 646.926C456.012 646.926 455.395 647.113 454.863 647.488C454.332 647.863 453.918 648.355 453.621 648.965V658H451.453V645.32H453.504ZM467.637 642.25V645.32H470.004V646.996H467.637V654.859C467.637 655.367 467.742 655.75 467.953 656.008C468.164 656.258 468.523 656.383 469.031 656.383C469.281 656.383 469.625 656.336 470.062 656.242V658C469.492 658.156 468.938 658.234 468.398 658.234C467.43 658.234 466.699 657.941 466.207 657.355C465.715 656.77 465.469 655.938 465.469 654.859V646.996H463.16V645.32H465.469V642.25H467.637ZM471.738 651.543C471.738 650.301 471.98 649.184 472.465 648.191C472.957 647.199 473.637 646.434 474.504 645.895C475.379 645.355 476.375 645.086 477.492 645.086C479.219 645.086 480.613 645.684 481.676 646.879C482.746 648.074 483.281 649.664 483.281 651.648V651.801C483.281 653.035 483.043 654.145 482.566 655.129C482.098 656.105 481.422 656.867 480.539 657.414C479.664 657.961 478.656 658.234 477.516 658.234C475.797 658.234 474.402 657.637 473.332 656.441C472.27 655.246 471.738 653.664 471.738 651.695V651.543ZM473.918 651.801C473.918 653.207 474.242 654.336 474.891 655.188C475.547 656.039 476.422 656.465 477.516 656.465C478.617 656.465 479.492 656.035 480.141 655.176C480.789 654.309 481.113 653.098 481.113 651.543C481.113 650.152 480.781 649.027 480.117 648.168C479.461 647.301 478.586 646.867 477.492 646.867C476.422 646.867 475.559 647.293 474.902 648.145C474.246 648.996 473.918 650.215 473.918 651.801ZM90.7266 688.465C91.5 688.465 92.1758 688.23 92.7539 687.762C93.332 687.293 93.6523 686.707 93.7148 686.004H95.7656C95.7266 686.73 95.4766 687.422 95.0156 688.078C94.5547 688.734 93.9375 689.258 93.1641 689.648C92.3984 690.039 91.5859 690.234 90.7266 690.234C89 690.234 87.625 689.66 86.6016 688.512C85.5859 687.355 85.0781 685.777 85.0781 683.777V683.414C85.0781 682.18 85.3047 681.082 85.7578 680.121C86.2109 679.16 86.8594 678.414 87.7031 677.883C88.5547 677.352 89.5586 677.086 90.7148 677.086C92.1367 677.086 93.3164 677.512 94.2539 678.363C95.1992 679.215 95.7031 680.32 95.7656 681.68H93.7148C93.6523 680.859 93.3398 680.188 92.7773 679.664C92.2227 679.133 91.5352 678.867 90.7148 678.867C89.6133 678.867 88.7578 679.266 88.1484 680.062C87.5469 680.852 87.2461 681.996 87.2461 683.496V683.906C87.2461 685.367 87.5469 686.492 88.1484 687.281C88.75 688.07 89.6094 688.465 90.7266 688.465ZM97.6289 683.543C97.6289 682.301 97.8711 681.184 98.3555 680.191C98.8477 679.199 99.5273 678.434 100.395 677.895C101.27 677.355 102.266 677.086 103.383 677.086C105.109 677.086 106.504 677.684 107.566 678.879C108.637 680.074 109.172 681.664 109.172 683.648V683.801C109.172 685.035 108.934 686.145 108.457 687.129C107.988 688.105 107.312 688.867 106.43 689.414C105.555 689.961 104.547 690.234 103.406 690.234C101.688 690.234 100.293 689.637 99.2227 688.441C98.1602 687.246 97.6289 685.664 97.6289 683.695V683.543ZM99.8086 683.801C99.8086 685.207 100.133 686.336 100.781 687.188C101.438 688.039 102.312 688.465 103.406 688.465C104.508 688.465 105.383 688.035 106.031 687.176C106.68 686.309 107.004 685.098 107.004 683.543C107.004 682.152 106.672 681.027 106.008 680.168C105.352 679.301 104.477 678.867 103.383 678.867C102.312 678.867 101.449 679.293 100.793 680.145C100.137 680.996 99.8086 682.215 99.8086 683.801ZM113.93 677.32L113.988 678.727C114.918 677.633 116.172 677.086 117.75 677.086C119.523 677.086 120.73 677.766 121.371 679.125C121.793 678.516 122.34 678.023 123.012 677.648C123.691 677.273 124.492 677.086 125.414 677.086C128.195 677.086 129.609 678.559 129.656 681.504V690H127.488V681.633C127.488 680.727 127.281 680.051 126.867 679.605C126.453 679.152 125.758 678.926 124.781 678.926C123.977 678.926 123.309 679.168 122.777 679.652C122.246 680.129 121.938 680.773 121.852 681.586V690H119.672V681.691C119.672 679.848 118.77 678.926 116.965 678.926C115.543 678.926 114.57 679.531 114.047 680.742V690H111.879V677.32H113.93ZM138.316 683.543C138.316 682.301 138.559 681.184 139.043 680.191C139.535 679.199 140.215 678.434 141.082 677.895C141.957 677.355 142.953 677.086 144.07 677.086C145.797 677.086 147.191 677.684 148.254 678.879C149.324 680.074 149.859 681.664 149.859 683.648V683.801C149.859 685.035 149.621 686.145 149.145 687.129C148.676 688.105 148 688.867 147.117 689.414C146.242 689.961 145.234 690.234 144.094 690.234C142.375 690.234 140.98 689.637 139.91 688.441C138.848 687.246 138.316 685.664 138.316 683.695V683.543ZM140.496 683.801C140.496 685.207 140.82 686.336 141.469 687.188C142.125 688.039 143 688.465 144.094 688.465C145.195 688.465 146.07 688.035 146.719 687.176C147.367 686.309 147.691 685.098 147.691 683.543C147.691 682.152 147.359 681.027 146.695 680.168C146.039 679.301 145.164 678.867 144.07 678.867C143 678.867 142.137 679.293 141.48 680.145C140.824 680.996 140.496 682.215 140.496 683.801ZM160.406 688.746C159.562 689.738 158.324 690.234 156.691 690.234C155.34 690.234 154.309 689.844 153.598 689.062C152.895 688.273 152.539 687.109 152.531 685.57V677.32H154.699V685.512C154.699 687.434 155.48 688.395 157.043 688.395C158.699 688.395 159.801 687.777 160.348 686.543V677.32H162.516V690H160.453L160.406 688.746ZM168.762 674.25V677.32H171.129V678.996H168.762V686.859C168.762 687.367 168.867 687.75 169.078 688.008C169.289 688.258 169.648 688.383 170.156 688.383C170.406 688.383 170.75 688.336 171.188 688.242V690C170.617 690.156 170.062 690.234 169.523 690.234C168.555 690.234 167.824 689.941 167.332 689.355C166.84 688.77 166.594 687.938 166.594 686.859V678.996H164.285V677.32H166.594V674.25H168.762ZM179.801 679.266C179.473 679.211 179.117 679.184 178.734 679.184C177.312 679.184 176.348 679.789 175.84 681V690H173.672V677.32H175.781L175.816 678.785C176.527 677.652 177.535 677.086 178.84 677.086C179.262 677.086 179.582 677.141 179.801 677.25V679.266ZM189.164 690C189.039 689.75 188.938 689.305 188.859 688.664C187.852 689.711 186.648 690.234 185.25 690.234C184 690.234 182.973 689.883 182.168 689.18C181.371 688.469 180.973 687.57 180.973 686.484C180.973 685.164 181.473 684.141 182.473 683.414C183.48 682.68 184.895 682.312 186.715 682.312H188.824V681.316C188.824 680.559 188.598 679.957 188.145 679.512C187.691 679.059 187.023 678.832 186.141 678.832C185.367 678.832 184.719 679.027 184.195 679.418C183.672 679.809 183.41 680.281 183.41 680.836H181.23C181.23 680.203 181.453 679.594 181.898 679.008C182.352 678.414 182.961 677.945 183.727 677.602C184.5 677.258 185.348 677.086 186.27 677.086C187.73 677.086 188.875 677.453 189.703 678.188C190.531 678.914 190.961 679.918 190.992 681.199V687.035C190.992 688.199 191.141 689.125 191.438 689.812V690H189.164ZM185.566 688.348C186.246 688.348 186.891 688.172 187.5 687.82C188.109 687.469 188.551 687.012 188.824 686.449V683.848H187.125C184.469 683.848 183.141 684.625 183.141 686.18C183.141 686.859 183.367 687.391 183.82 687.773C184.273 688.156 184.855 688.348 185.566 688.348ZM201.773 686.637C201.773 686.051 201.551 685.598 201.105 685.277C200.668 684.949 199.898 684.668 198.797 684.434C197.703 684.199 196.832 683.918 196.184 683.59C195.543 683.262 195.066 682.871 194.754 682.418C194.449 681.965 194.297 681.426 194.297 680.801C194.297 679.762 194.734 678.883 195.609 678.164C196.492 677.445 197.617 677.086 198.984 677.086C200.422 677.086 201.586 677.457 202.477 678.199C203.375 678.941 203.824 679.891 203.824 681.047H201.645C201.645 680.453 201.391 679.941 200.883 679.512C200.383 679.082 199.75 678.867 198.984 678.867C198.195 678.867 197.578 679.039 197.133 679.383C196.688 679.727 196.465 680.176 196.465 680.73C196.465 681.254 196.672 681.648 197.086 681.914C197.5 682.18 198.246 682.434 199.324 682.676C200.41 682.918 201.289 683.207 201.961 683.543C202.633 683.879 203.129 684.285 203.449 684.762C203.777 685.23 203.941 685.805 203.941 686.484C203.941 687.617 203.488 688.527 202.582 689.215C201.676 689.895 200.5 690.234 199.055 690.234C198.039 690.234 197.141 690.055 196.359 689.695C195.578 689.336 194.965 688.836 194.52 688.195C194.082 687.547 193.863 686.848 193.863 686.098H196.031C196.07 686.824 196.359 687.402 196.898 687.832C197.445 688.254 198.164 688.465 199.055 688.465C199.875 688.465 200.531 688.301 201.023 687.973C201.523 687.637 201.773 687.191 201.773 686.637ZM223.43 683.801C223.43 685.73 222.988 687.285 222.105 688.465C221.223 689.645 220.027 690.234 218.52 690.234C216.98 690.234 215.77 689.746 214.887 688.77V694.875H212.719V677.32H214.699L214.805 678.727C215.688 677.633 216.914 677.086 218.484 677.086C220.008 677.086 221.211 677.66 222.094 678.809C222.984 679.957 223.43 681.555 223.43 683.602V683.801ZM221.262 683.555C221.262 682.125 220.957 680.996 220.348 680.168C219.738 679.34 218.902 678.926 217.84 678.926C216.527 678.926 215.543 679.508 214.887 680.672V686.73C215.535 687.887 216.527 688.465 217.863 688.465C218.902 688.465 219.727 688.055 220.336 687.234C220.953 686.406 221.262 685.18 221.262 683.555ZM231.457 690.234C229.738 690.234 228.34 689.672 227.262 688.547C226.184 687.414 225.645 685.902 225.645 684.012V683.613C225.645 682.355 225.883 681.234 226.359 680.25C226.844 679.258 227.516 678.484 228.375 677.93C229.242 677.367 230.18 677.086 231.188 677.086C232.836 677.086 234.117 677.629 235.031 678.715C235.945 679.801 236.402 681.355 236.402 683.379V684.281H227.812C227.844 685.531 228.207 686.543 228.902 687.316C229.605 688.082 230.496 688.465 231.574 688.465C232.34 688.465 232.988 688.309 233.52 687.996C234.051 687.684 234.516 687.27 234.914 686.754L236.238 687.785C235.176 689.418 233.582 690.234 231.457 690.234ZM231.188 678.867C230.312 678.867 229.578 679.188 228.984 679.828C228.391 680.461 228.023 681.352 227.883 682.5H234.234V682.336C234.172 681.234 233.875 680.383 233.344 679.781C232.812 679.172 232.094 678.867 231.188 678.867ZM246.305 686.637C246.305 686.051 246.082 685.598 245.637 685.277C245.199 684.949 244.43 684.668 243.328 684.434C242.234 684.199 241.363 683.918 240.715 683.59C240.074 683.262 239.598 682.871 239.285 682.418C238.98 681.965 238.828 681.426 238.828 680.801C238.828 679.762 239.266 678.883 240.141 678.164C241.023 677.445 242.148 677.086 243.516 677.086C244.953 677.086 246.117 677.457 247.008 678.199C247.906 678.941 248.355 679.891 248.355 681.047H246.176C246.176 680.453 245.922 679.941 245.414 679.512C244.914 679.082 244.281 678.867 243.516 678.867C242.727 678.867 242.109 679.039 241.664 679.383C241.219 679.727 240.996 680.176 240.996 680.73C240.996 681.254 241.203 681.648 241.617 681.914C242.031 682.18 242.777 682.434 243.855 682.676C244.941 682.918 245.82 683.207 246.492 683.543C247.164 683.879 247.66 684.285 247.98 684.762C248.309 685.23 248.473 685.805 248.473 686.484C248.473 687.617 248.02 688.527 247.113 689.215C246.207 689.895 245.031 690.234 243.586 690.234C242.57 690.234 241.672 690.055 240.891 689.695C240.109 689.336 239.496 688.836 239.051 688.195C238.613 687.547 238.395 686.848 238.395 686.098H240.562C240.602 686.824 240.891 687.402 241.43 687.832C241.977 688.254 242.695 688.465 243.586 688.465C244.406 688.465 245.062 688.301 245.555 687.973C246.055 687.637 246.305 687.191 246.305 686.637ZM258.68 686.637C258.68 686.051 258.457 685.598 258.012 685.277C257.574 684.949 256.805 684.668 255.703 684.434C254.609 684.199 253.738 683.918 253.09 683.59C252.449 683.262 251.973 682.871 251.66 682.418C251.355 681.965 251.203 681.426 251.203 680.801C251.203 679.762 251.641 678.883 252.516 678.164C253.398 677.445 254.523 677.086 255.891 677.086C257.328 677.086 258.492 677.457 259.383 678.199C260.281 678.941 260.73 679.891 260.73 681.047H258.551C258.551 680.453 258.297 679.941 257.789 679.512C257.289 679.082 256.656 678.867 255.891 678.867C255.102 678.867 254.484 679.039 254.039 679.383C253.594 679.727 253.371 680.176 253.371 680.73C253.371 681.254 253.578 681.648 253.992 681.914C254.406 682.18 255.152 682.434 256.23 682.676C257.316 682.918 258.195 683.207 258.867 683.543C259.539 683.879 260.035 684.285 260.355 684.762C260.684 685.23 260.848 685.805 260.848 686.484C260.848 687.617 260.395 688.527 259.488 689.215C258.582 689.895 257.406 690.234 255.961 690.234C254.945 690.234 254.047 690.055 253.266 689.695C252.484 689.336 251.871 688.836 251.426 688.195C250.988 687.547 250.77 686.848 250.77 686.098H252.938C252.977 686.824 253.266 687.402 253.805 687.832C254.352 688.254 255.07 688.465 255.961 688.465C256.781 688.465 257.438 688.301 257.93 687.973C258.43 687.637 258.68 687.191 258.68 686.637ZM263.098 683.543C263.098 682.301 263.34 681.184 263.824 680.191C264.316 679.199 264.996 678.434 265.863 677.895C266.738 677.355 267.734 677.086 268.852 677.086C270.578 677.086 271.973 677.684 273.035 678.879C274.105 680.074 274.641 681.664 274.641 683.648V683.801C274.641 685.035 274.402 686.145 273.926 687.129C273.457 688.105 272.781 688.867 271.898 689.414C271.023 689.961 270.016 690.234 268.875 690.234C267.156 690.234 265.762 689.637 264.691 688.441C263.629 687.246 263.098 685.664 263.098 683.695V683.543ZM265.277 683.801C265.277 685.207 265.602 686.336 266.25 687.188C266.906 688.039 267.781 688.465 268.875 688.465C269.977 688.465 270.852 688.035 271.5 687.176C272.148 686.309 272.473 685.098 272.473 683.543C272.473 682.152 272.141 681.027 271.477 680.168C270.82 679.301 269.945 678.867 268.852 678.867C267.781 678.867 266.918 679.293 266.262 680.145C265.605 680.996 265.277 682.215 265.277 683.801ZM285.188 690C285.062 689.75 284.961 689.305 284.883 688.664C283.875 689.711 282.672 690.234 281.273 690.234C280.023 690.234 278.996 689.883 278.191 689.18C277.395 688.469 276.996 687.57 276.996 686.484C276.996 685.164 277.496 684.141 278.496 683.414C279.504 682.68 280.918 682.312 282.738 682.312H284.848V681.316C284.848 680.559 284.621 679.957 284.168 679.512C283.715 679.059 283.047 678.832 282.164 678.832C281.391 678.832 280.742 679.027 280.219 679.418C279.695 679.809 279.434 680.281 279.434 680.836H277.254C277.254 680.203 277.477 679.594 277.922 679.008C278.375 678.414 278.984 677.945 279.75 677.602C280.523 677.258 281.371 677.086 282.293 677.086C283.754 677.086 284.898 677.453 285.727 678.188C286.555 678.914 286.984 679.918 287.016 681.199V687.035C287.016 688.199 287.164 689.125 287.461 689.812V690H285.188ZM281.59 688.348C282.27 688.348 282.914 688.172 283.523 687.82C284.133 687.469 284.574 687.012 284.848 686.449V683.848H283.148C280.492 683.848 279.164 684.625 279.164 686.18C279.164 686.859 279.391 687.391 279.844 687.773C280.297 688.156 280.879 688.348 281.59 688.348ZM297.797 686.637C297.797 686.051 297.574 685.598 297.129 685.277C296.691 684.949 295.922 684.668 294.82 684.434C293.727 684.199 292.855 683.918 292.207 683.59C291.566 683.262 291.09 682.871 290.777 682.418C290.473 681.965 290.32 681.426 290.32 680.801C290.32 679.762 290.758 678.883 291.633 678.164C292.516 677.445 293.641 677.086 295.008 677.086C296.445 677.086 297.609 677.457 298.5 678.199C299.398 678.941 299.848 679.891 299.848 681.047H297.668C297.668 680.453 297.414 679.941 296.906 679.512C296.406 679.082 295.773 678.867 295.008 678.867C294.219 678.867 293.602 679.039 293.156 679.383C292.711 679.727 292.488 680.176 292.488 680.73C292.488 681.254 292.695 681.648 293.109 681.914C293.523 682.18 294.27 682.434 295.348 682.676C296.434 682.918 297.312 683.207 297.984 683.543C298.656 683.879 299.152 684.285 299.473 684.762C299.801 685.23 299.965 685.805 299.965 686.484C299.965 687.617 299.512 688.527 298.605 689.215C297.699 689.895 296.523 690.234 295.078 690.234C294.062 690.234 293.164 690.055 292.383 689.695C291.602 689.336 290.988 688.836 290.543 688.195C290.105 687.547 289.887 686.848 289.887 686.098H292.055C292.094 686.824 292.383 687.402 292.922 687.832C293.469 688.254 294.188 688.465 295.078 688.465C295.898 688.465 296.555 688.301 297.047 687.973C297.547 687.637 297.797 687.191 297.797 686.637Z" fill="#F8F8F8"/>
<defs>
<linearGradient id="paint0_linear_45_2598" x1="117.618" y1="220.776" x2="228.84" y2="301.888" gradientUnits="userSpaceOnUse">
<stop stop-color="white"/>
<stop offset="1" stop-color="white" stop-opacity="0"/>
</linearGradient>
<linearGradient id="paint1_linear_45_2598" x1="174.288" y1="142.891" x2="285.51" y2="224.002" gradientUnits="userSpaceOnUse">
<stop stop-color="white"/>
<stop offset="1" stop-color="white" stop-opacity="0"/>
</linearGradient>
<linearGradient id="paint2_linear_45_2598" x1="100.023" y1="206.489" x2="211.245" y2="287.601" gradientUnits="userSpaceOnUse">
<stop stop-color="white"/>
<stop offset="1" stop-color="white" stop-opacity="0"/>
</linearGradient>
<linearGradient id="paint3_linear_45_2598" x1="156.693" y1="128.603" x2="267.915" y2="209.714" gradientUnits="userSpaceOnUse">
<stop stop-color="white"/>
<stop offset="1" stop-color="white" stop-opacity="0"/>
</linearGradient>
<linearGradient id="paint4_linear_45_2598" x1="153.271" y1="349.769" x2="170.727" y2="380.005" gradientUnits="userSpaceOnUse">
<stop stop-color="white"/>
<stop offset="1" stop-color="white" stop-opacity="0"/>
</linearGradient>
<linearGradient id="paint5_linear_45_2598" x1="310.423" y1="303.183" x2="327.88" y2="333.419" gradientUnits="userSpaceOnUse">
<stop stop-color="white"/>
<stop offset="1" stop-color="white" stop-opacity="0"/>
</linearGradient>
<linearGradient id="paint6_linear_45_2598" x1="167.661" y1="367.547" x2="148.699" y2="521.299" gradientUnits="userSpaceOnUse">
<stop stop-color="white"/>
<stop offset="1" stop-color="white" stop-opacity="0"/>
</linearGradient>
<linearGradient id="paint7_linear_45_2598" x1="282.387" y1="356.403" x2="358.093" y2="415.664" gradientUnits="userSpaceOnUse">
<stop stop-color="white"/>
<stop offset="1" stop-color="white" stop-opacity="0"/>
</linearGradient>
<linearGradient id="paint8_linear_45_2598" x1="326.889" y1="451.562" x2="349.686" y2="469.549" gradientUnits="userSpaceOnUse">
<stop stop-color="white"/>
<stop offset="1" stop-color="white" stop-opacity="0"/>
</linearGradient>
<linearGradient id="paint9_linear_45_2598" x1="138.215" y1="288.456" x2="160.298" y2="300.763" gradientUnits="userSpaceOnUse">
<stop stop-color="white"/>
<stop offset="1" stop-color="white" stop-opacity="0"/>
</linearGradient>
</defs>
</svg>
